<?xml version="1.0" encoding="UTF-8" standalone="no"?>
<!-- Created with Inkscape (http://www.inkscape.org/) -->

<svg
   xmlns:dc="http://purl.org/dc/elements/1.1/"
   xmlns:cc="http://creativecommons.org/ns#"
   xmlns:rdf="http://www.w3.org/1999/02/22-rdf-syntax-ns#"
   xmlns:svg="http://www.w3.org/2000/svg"
   xmlns="http://www.w3.org/2000/svg"
   xmlns:sodipodi="http://sodipodi.sourceforge.net/DTD/sodipodi-0.dtd"
   xmlns:inkscape="http://www.inkscape.org/namespaces/inkscape"
   id="svg3390"
   version="1.1"
   inkscape:version="0.91 r13725"
   xml:space="preserve"
   width="118.2"
   height="63.200001"
   viewBox="0 0 118.2 63.200001"
   sodipodi:docname="logo.uten.tekst.svg"
   inkscape:export-filename="/home/hauk184/workspace/felles-design/felles-design/src/main/webapp/images/emblem.brun.png"
   inkscape:export-xdpi="90"
   inkscape:export-ydpi="90"><metadata
     id="metadata3396"><rdf:RDF><cc:Work
         rdf:about=""><dc:format>image/svg+xml</dc:format><dc:type
           rdf:resource="http://purl.org/dc/dcmitype/StillImage" /><dc:title /></cc:Work></rdf:RDF></metadata><defs
     id="defs3394" /><sodipodi:namedview
     pagecolor="#ffffff"
     bordercolor="#666666"
     borderopacity="1"
     objecttolerance="10"
     gridtolerance="10"
     guidetolerance="10"
     inkscape:pageopacity="0"
     inkscape:pageshadow="2"
     inkscape:window-width="1920"
     inkscape:window-height="1177"
     id="namedview3392"
     showgrid="false"
     inkscape:zoom="11.313708"
     inkscape:cx="42.200958"
     inkscape:cy="36.004537"
     inkscape:window-x="0"
     inkscape:window-y="0"
     inkscape:window-maximized="1"
     inkscape:current-layer="g3400"
     inkscape:snap-object-midpoints="false"
     inkscape:snap-center="false"
     inkscape:snap-smooth-nodes="true"
     inkscape:snap-intersection-paths="true" /><g
     id="g3398"
     inkscape:groupmode="layer"
     inkscape:label="ink_ext_XXXXXX"
     transform="matrix(1.25,0,0,-1.25,0,63.2)"><g
       id="g3400"
       transform="scale(0.1,0.1)"><path
         d="m 230.012,0 268.316,504.633 -15.855,0 L 214.172,0 l 15.84,0"
         style="fill:#cccccc;fill-opacity:1;fill-rule:nonzero;stroke:none"
         id="path3498"
         inkscape:connector-curvature="0" /><path
         d="m 187.156,0 268.305,504.633 -15.844,0 L 171.301,0 187.156,0"
         style="fill:#cccccc;fill-opacity:1;fill-rule:nonzero;stroke:none"
         id="path3500"
         inkscape:connector-curvature="0" /><path
         d="m 144.285,0 268.32,504.633 -15.859,0 L 128.43,0 144.285,0"
         style="fill:#cccccc;fill-opacity:1;fill-rule:nonzero;stroke:none"
         id="path3502"
         inkscape:connector-curvature="0" /><path
         d="m 101.414,0 268.32,504.633 -15.855,0 L 85.5781,0 101.414,0"
         style="fill:#cccccc;fill-opacity:1;fill-rule:nonzero;stroke:none"
         id="path3504"
         inkscape:connector-curvature="0" /><path
         d="m 58.5547,0 268.3083,504.633 -15.84,0 L 42.7148,0 58.5547,0"
         style="fill:#cccccc;fill-opacity:1;fill-rule:nonzero;stroke:none"
         id="path3506"
         inkscape:connector-curvature="0" /><path
         d="m 712.605,142.207 -15.859,0 L 772.355,0 l 15.86,0 -75.61,142.207"
         style="fill:#cccccc;fill-opacity:1;fill-rule:nonzero;stroke:none"
         id="path3508"
         inkscape:connector-curvature="0" /><path
         d="m 669.734,142.207 -15.839,0 L 729.504,0 l 15.84,0 -75.61,142.207"
         style="fill:#cccccc;fill-opacity:1;fill-rule:nonzero;stroke:none"
         id="path3510"
         inkscape:connector-curvature="0" /><path
         d="M 611.023,142.207 686.633,0 l 15.855,0 -75.601,142.207 -15.864,0"
         style="fill:#cccccc;fill-opacity:1;fill-rule:nonzero;stroke:none"
         id="path3512"
         inkscape:connector-curvature="0" /><path
         d="M 568.152,142.207 643.762,0 l 15.855,0 -75.601,142.207 -15.864,0"
         style="fill:#cccccc;fill-opacity:1;fill-rule:nonzero;stroke:none"
         id="path3514"
         inkscape:connector-curvature="0" /><path
         d="M 525.305,142.207 600.906,0 l 15.864,0 -75.61,142.207 -15.855,0"
         style="fill:#cccccc;fill-opacity:1;fill-rule:nonzero;stroke:none"
         id="path3516"
         inkscape:connector-curvature="0" /><path
         d="M 15.7422,0.0195313 283.699,504.441 C 272.805,501.98 262.996,494.98 257.355,484.332 L 0,0.0195313 l 15.7422,0"
         style="fill:#cccccc;fill-opacity:1;fill-rule:nonzero;stroke:none"
         id="path3518"
         inkscape:connector-curvature="0" /><path
         d="m 498.23,142.246 -15.679,0 64.722,-121.7968 C 552.922,9.80469 562.727,2.79297 573.621,0.332031 L 498.23,142.246"
         style="fill:#cccccc;fill-opacity:1;fill-rule:nonzero;stroke:none"
         id="path3520"
         inkscape:connector-curvature="0" /><path
         d="M 928.227,252.949 802.102,15.7305 810.027,0.820313 944.086,252.949 l -15.859,0"
         style="fill:#cccccc;fill-opacity:1;fill-rule:nonzero;stroke:none"
         id="path3522"
         inkscape:connector-curvature="0" /><path
         d="M 885.359,252.949 780.676,56.0352 l 7.929,-14.9024 112.618,211.8162 -15.864,0"
         style="fill:#cccccc;fill-opacity:1;fill-rule:nonzero;stroke:none"
         id="path3524"
         inkscape:connector-curvature="0" /><path
         d="m 842.5,252.949 -83.27,-156.6013 7.926,-14.9024 91.203,171.5037 -15.859,0"
         style="fill:#cccccc;fill-opacity:1;fill-rule:nonzero;stroke:none"
         id="path3526"
         inkscape:connector-curvature="0" /><path
         d="m 799.629,252.949 -61.832,-116.289 7.93,-14.902 69.761,131.191 -15.859,0"
         style="fill:#cccccc;fill-opacity:1;fill-rule:nonzero;stroke:none"
         id="path3528"
         inkscape:connector-curvature="0" /><path
         d="m 756.777,252.949 -40.406,-75.984 7.93,-14.914 48.336,90.898 -15.86,0"
         style="fill:#cccccc;fill-opacity:1;fill-rule:nonzero;stroke:none"
         id="path3530"
         inkscape:connector-curvature="0" /><path
         d="m 713.918,252.949 -18.973,-35.683 7.91,-14.907 26.903,50.59 -15.84,0"
         style="fill:#cccccc;fill-opacity:1;fill-rule:nonzero;stroke:none"
         id="path3532"
         inkscape:connector-curvature="0" /><path
         d="m 530.371,162.488 -95.754,180.078 -7.929,-14.91 87.824,-165.168 15.859,0"
         style="fill:#cccccc;fill-opacity:1;fill-rule:nonzero;stroke:none"
         id="path3534"
         inkscape:connector-curvature="0" /><path
         d="m 573.223,162.488 -117.176,220.383 -7.934,-14.906 109.25,-205.477 15.86,0"
         style="fill:#cccccc;fill-opacity:1;fill-rule:nonzero;stroke:none"
         id="path3536"
         inkscape:connector-curvature="0" /><path
         d="m 616.094,162.488 -138.621,260.696 -7.93,-14.914 130.691,-245.782 15.86,0"
         style="fill:#cccccc;fill-opacity:1;fill-rule:nonzero;stroke:none"
         id="path3538"
         inkscape:connector-curvature="0" /><path
         d="m 701.816,162.488 -181.472,341.309 -7.934,-14.906 173.547,-326.403 15.859,0"
         style="fill:#cccccc;fill-opacity:1;fill-rule:nonzero;stroke:none"
         id="path3540"
         inkscape:connector-curvature="0" /><path
         d="m 658.945,162.488 -160.027,300.996 -7.934,-14.902 152.102,-286.094 15.859,0"
         style="fill:#cccccc;fill-opacity:1;fill-rule:nonzero;stroke:none"
         id="path3542"
         inkscape:connector-curvature="0" /><path
         d="m 487.48,162.488 -74.304,139.774 -7.91,-14.91 66.375,-124.864 15.839,0"
         style="fill:#cccccc;fill-opacity:1;fill-rule:nonzero;stroke:none"
         id="path3544"
         inkscape:connector-curvature="0" /><path
         d="M 695.191,145.383 772.48,0.0117188 l 15.86,0 -77.293,145.3712812 -15.856,0"
         style="fill:#cccccc;fill-opacity:1;fill-rule:nonzero;stroke:none"
         id="path3546"
         inkscape:connector-curvature="0" /><path
         d="m 652.336,145.383 77.293,-145.3712812 15.84,0 L 668.18,145.383 l -15.844,0"
         style="fill:#cccccc;fill-opacity:1;fill-rule:nonzero;stroke:none"
         id="path3548"
         inkscape:connector-curvature="0" /><path
         d="m 609.465,145.383 77.293,-145.3712812 15.859,0 L 625.32,145.383 l -15.855,0"
         style="fill:#cccccc;fill-opacity:1;fill-rule:nonzero;stroke:none"
         id="path3550"
         inkscape:connector-curvature="0" /><path
         d="m 566.598,145.383 77.289,-145.3712812 15.859,0 -77.297,145.3712812 -15.851,0"
         style="fill:#cccccc;fill-opacity:1;fill-rule:nonzero;stroke:none"
         id="path3552"
         inkscape:connector-curvature="0" /><path
         d="m 523.746,145.383 77.289,-145.3712812 15.84,0 -77.289,145.3712812 -15.84,0"
         style="fill:#cccccc;fill-opacity:1;fill-rule:nonzero;stroke:none"
         id="path3554"
         inkscape:connector-curvature="0" /><path
         d="M 480.906,145.383 547.363,20.3125 C 553.008,9.66797 562.813,2.66797 573.711,0.203125 L 496.594,145.383 l -15.688,0"
         style="fill:#cccccc;fill-opacity:1;fill-rule:nonzero;stroke:none"
         id="path3556"
         inkscape:connector-curvature="0" /></g></g></svg>