<?xml version="1.0" encoding="UTF-8" standalone="no"?>
<!-- Created with Inkscape (http://www.inkscape.org/) -->



<svg
   xmlns:dc="http://purl.org/dc/elements/1.1/"
   xmlns:cc="http://creativecommons.org/ns#"
   xmlns:rdf="http://www.w3.org/1999/02/22-rdf-syntax-ns#"
   xmlns:svg="http://www.w3.org/2000/svg"
   xmlns="http://www.w3.org/2000/svg"
   xmlns:sodipodi="http://sodipodi.sourceforge.net/DTD/sodipodi-0.dtd"
   xmlns:inkscape="http://www.inkscape.org/namespaces/inkscape"
   id="svg4572"
   version="1.1"
   inkscape:version="0.91 r13725"
   xml:space="preserve"
   width="240.2"
   height="63.200001"
   viewBox="0 0 240.2 63.200001"
   sodipodi:docname="logo.med.tekst.svg"><metadata
     id="metadata4578"><rdf:RDF><cc:Work
         rdf:about=""><dc:format>image/svg+xml</dc:format><dc:type
           rdf:resource="http://purl.org/dc/dcmitype/StillImage" /><dc:title></dc:title></cc:Work></rdf:RDF></metadata><defs
     id="defs4576" /><sodipodi:namedview
     pagecolor="#ffffff"
     bordercolor="#666666"
     borderopacity="1"
     objecttolerance="10"
     gridtolerance="10"
     guidetolerance="10"
     inkscape:pageopacity="0"
     inkscape:pageshadow="2"
     inkscape:window-width="640"
     inkscape:window-height="480"
     id="namedview4574"
     showgrid="false"
     inkscape:zoom="1.4446295"
     inkscape:cx="120.1"
     inkscape:cy="31.6"
     inkscape:window-x="0"
     inkscape:window-y="0"
     inkscape:window-maximized="0"
     inkscape:current-layer="g4580" /><g
     id="g4580"
     inkscape:groupmode="layer"
     inkscape:label="ink_ext_XXXXXX"
     transform="matrix(1.25,0,0,-1.25,0,63.2)"><g
       id="g4582"
       transform="scale(0.1,0.1)"><path
         d="m 725.227,505.621 -17.247,0 0,-85.871 58.309,0 0,15.348 -41.062,0 0,70.523"
         style="fill:#35160f;fill-opacity:1;fill-rule:nonzero;stroke:none"
         id="path4584"
         inkscape:connector-curvature="0" /><path
         d="m 874.578,483.016 c -6.687,0 -12.664,-2.707 -16.648,-7.489 l 0,6.309 -15.586,0 0,-62.086 15.949,0 0,34.707 c 0,9.551 3.965,14.395 11.785,14.395 8.672,0 10.496,-7.184 10.496,-13.211 l 0,-35.891 15.942,0 0,39.563 c 0,15.062 -8,23.703 -21.938,23.703"
         style="fill:#35160f;fill-opacity:1;fill-rule:nonzero;stroke:none"
         id="path4586"
         inkscape:connector-curvature="0" /><path
         d="m 936.184,432.254 c -7.524,0 -12.383,4.258 -12.383,10.855 l 0,15.016 c 0,8.262 6.14,11.199 11.902,11.199 7.551,0 12.617,-4.402 12.617,-10.961 l 0,-14.902 c 0,-8.27 -6.535,-11.207 -12.136,-11.207 z m 12.136,44.191 c -3.078,3.364 -8.332,6.571 -14.98,6.571 -15.625,0 -25.723,-9.953 -25.723,-25.36 l 0,-14.672 c 0,-14.746 9.91,-24.656 24.656,-24.656 5,0 12.317,2.762 16.411,7.008 l 0,-5.586 15.586,0 0,85.871 -15.95,0 0,-29.176"
         style="fill:#35160f;fill-opacity:1;fill-rule:nonzero;stroke:none"
         id="path4588"
         inkscape:connector-curvature="0" /><path
         d="m 1018.47,458.25 0,-15.031 c 0,-8.254 -6.16,-11.192 -11.91,-11.192 -7.556,0 -12.634,4.403 -12.634,10.957 l 0,13.954 c 0,7.98 6.114,12.152 12.154,12.152 7.52,0 12.39,-4.25 12.39,-10.84 z m -8.48,24.766 c -3.07,0 -10.47,-0.715 -16.064,-6.981 l 0,29.586 -15.918,0 0,-85.871 15.332,0 0,5.168 c 3.078,-3.367 8.35,-6.59 15,-6.59 13.1,0 26.31,7.848 26.31,25.367 l 0,14.668 c 0,14.746 -9.91,24.653 -24.66,24.653"
         style="fill:#35160f;fill-opacity:1;fill-rule:nonzero;stroke:none"
         id="path4590"
         inkscape:connector-curvature="0" /><path
         d="m 1081.08,483.016 c -6.95,0 -15.11,-4.266 -19.24,-9.817 l 0,8.637 -15.57,0 0,-62.086 15.94,0 0,31.75 c 0,10.184 7.17,16.766 18.29,16.766 2.01,0 3.47,0 5.29,-0.34 l 0.89,-0.168 0,14.746 -0.58,0.137 c -1.61,0.375 -3.41,0.375 -5.02,0.375"
         style="fill:#35160f;fill-opacity:1;fill-rule:nonzero;stroke:none"
         id="path4592"
         inkscape:connector-curvature="0" /><path
         d="m 1133.59,447.242 c 0,-9.629 -3.93,-14.508 -11.69,-14.508 -8.76,0 -10.59,7.184 -10.59,13.207 l 0,35.895 -15.95,0 0,-39.445 c 0,-14.914 8.24,-23.821 22.04,-23.821 6.79,0 12.64,2.696 16.65,7.625 l 0,-6.445 15.48,0 0,62.086 -15.94,0 0,-34.594"
         style="fill:#35160f;fill-opacity:1;fill-rule:nonzero;stroke:none"
         id="path4594"
         inkscape:connector-curvature="0" /><path
         d="m 1219.31,481.836 -19.24,0 -21.04,-23.746 -0.12,46.777 -0.01,0.754 -15.93,0 0,-85.871 15.94,0 0,19.625 7.04,7.563 15.7,-26.817 0.22,-0.371 17.98,0 -23,38.398 22.46,23.688"
         style="fill:#35160f;fill-opacity:1;fill-rule:nonzero;stroke:none"
         id="path4596"
         inkscape:connector-curvature="0" /><path
         d="m 1259.28,457.449 -10.87,2.149 c -6.13,1.125 -9.08,1.797 -9.08,4.918 0,5.414 6.33,5.996 9.06,5.996 5.64,0 9.5,-1.688 12.91,-5.653 l 0.43,-0.507 11.6,7.898 -0.44,0.621 c -4.93,7 -12.68,10.262 -24.38,10.262 -14.59,0 -24.78,-8.481 -24.78,-20.625 0,-8.778 5.95,-14.473 17.2,-16.469 l 7.92,-1.426 c 8.31,-1.449 10.72,-2.476 10.72,-6.484 0,-4.938 -5.77,-6.695 -11.18,-6.695 -6.54,0 -12.4,2.781 -16.1,7.625 l -0.44,0.593 -11.33,-8.57 0.39,-0.59 c 5.42,-7.988 14.74,-12.039 27.71,-12.039 13.66,0 27.48,7.332 27.48,21.34 0,9.266 -5.97,15.535 -16.82,17.656"
         style="fill:#35160f;fill-opacity:1;fill-rule:nonzero;stroke:none"
         id="path4598"
         inkscape:connector-curvature="0" /><path
         d="m 1313.46,432.254 c -7.53,0 -12.39,4.258 -12.39,10.855 l 0,15.016 c 0,8.262 6.15,11.199 11.91,11.199 7.56,0 12.63,-4.402 12.63,-10.961 l 0,-14.902 c 0,-8.27 -6.55,-11.207 -12.15,-11.207 z m 12.15,44.195 c -3.08,3.36 -8.35,6.567 -14.99,6.567 -15.63,0 -25.72,-9.953 -25.72,-25.36 l 0,-14.672 c 0,-14.746 9.91,-24.656 24.66,-24.656 5,0 12.31,2.762 16.4,7.004 l 0,-5.582 15.58,0 0,85.871 -15.93,0 0,-29.172"
         style="fill:#35160f;fill-opacity:1;fill-rule:nonzero;stroke:none"
         id="path4600"
         inkscape:connector-curvature="0" /><path
         d="m 1355.23,488.73 15.9414,0 0,16.8906 -15.9414,0 0,-16.8906 z"
         style="fill:#35160f;fill-opacity:1;fill-rule:nonzero;stroke:none"
         id="path4602"
         inkscape:connector-curvature="0" /><path
         d="m 1355.23,419.75 15.9414,0 0,62.0859 -15.9414,0 0,-62.0859 z"
         style="fill:#35160f;fill-opacity:1;fill-rule:nonzero;stroke:none"
         id="path4604"
         inkscape:connector-curvature="0" /><path
         d="m 1419.5,483.016 c -6.97,0 -15.13,-4.27 -19.27,-9.828 l 0,8.648 -15.58,0 0,-62.086 15.95,0 0,31.75 c 0,10.184 7.18,16.766 18.3,16.766 2.01,0 3.46,0 5.3,-0.34 l 0.89,-0.168 0,14.746 -0.59,0.137 c -1.61,0.375 -3.49,0.375 -5,0.375"
         style="fill:#35160f;fill-opacity:1;fill-rule:nonzero;stroke:none"
         id="path4606"
         inkscape:connector-curvature="0" /><path
         d="m 1447.22,457.465 0,0.074 c 0,8.602 6.32,11.668 12.26,11.668 5.3,0 10.95,-2.844 10.95,-10.844 l 0,-0.898 -23.21,0 z m 12.26,25.441 c -16.75,0 -28.44,-11.211 -28.44,-27.265 l 0,-11.828 c 0,-17.602 14.52,-25.485 28.91,-25.485 12.05,0 21.15,4.942 25.63,13.906 l 0.32,0.637 -12.35,7.086 -0.39,-0.574 c -3.13,-4.543 -8.05,-7.485 -12.51,-7.485 -6.47,0 -13.43,3.579 -13.43,11.438 l 0,2.562 39.16,0 0,12.465 c 0,16.86 -13.95,24.543 -26.9,24.543"
         style="fill:#35160f;fill-opacity:1;fill-rule:nonzero;stroke:none"
         id="path4608"
         inkscape:connector-curvature="0" /><path
         d="m 1554.21,481.836 -19.24,0 -21.05,-23.746 -0.11,46.777 -0.01,0.754 -15.93,0 0,-85.871 15.94,0 0,19.625 7.04,7.563 15.7,-26.817 0.22,-0.371 17.97,0 -22.99,38.398 22.46,23.688"
         style="fill:#35160f;fill-opacity:1;fill-rule:nonzero;stroke:none"
         id="path4610"
         inkscape:connector-curvature="0" /><path
         d="m 1582.86,500.176 -15.93,0 0,-18.34 -8.16,0 0,-12.984 8.16,0 0,-34.032 c 0,-10.027 6.61,-16.011 17.67,-16.011 2.17,0 7.58,0.355 10.84,1.207 l 0.56,0.144 0,13.762 -0.87,-0.145 c -2.8,-0.457 -4.38,-0.578 -7.33,-0.578 -3.46,0 -4.94,1.512 -4.94,5.059 l 0,30.594 13.14,0 0,12.984 -13.14,0 0,18.34"
         style="fill:#35160f;fill-opacity:1;fill-rule:nonzero;stroke:none"
         id="path4612"
         inkscape:connector-curvature="0" /><path
         d="m 1619.09,457.891 c 0,8.261 6.15,11.199 11.92,11.199 7.4,0 12.37,-4.356 12.37,-10.84 l 0,-15.031 c 0,-8.254 -6.14,-11.192 -11.91,-11.192 -7.4,0 -12.38,4.403 -12.38,10.957 l 0,14.907 z m 11.92,25.015 c -13.62,0 -28.1,-9.179 -28.1,-26.191 l 0,-13.856 c 0,-16.855 14.81,-24.531 28.56,-24.531 13.62,0 28.08,9.18 28.08,26.188 l 0,12.422 c 0,16.867 -14.71,25.968 -28.54,25.968"
         style="fill:#35160f;fill-opacity:1;fill-rule:nonzero;stroke:none"
         id="path4614"
         inkscape:connector-curvature="0" /><path
         d="m 1705.85,483.016 c -6.94,0 -15.09,-4.25 -19.23,-9.793 l 0,8.613 -15.58,0 0,-62.086 15.91,0 0,31.75 c 0,10.184 7.19,16.766 18.31,16.766 1.96,0 3.49,0 5.32,-0.34 l 0.88,-0.168 0,14.746 -0.58,0.137 c -1.63,0.375 -3.44,0.375 -5.03,0.375"
         style="fill:#35160f;fill-opacity:1;fill-rule:nonzero;stroke:none"
         id="path4616"
         inkscape:connector-curvature="0" /><path
         d="m 1802.15,500.176 -15.94,0 0,-18.34 -8.16,0 0,-12.984 8.16,0 0,-34.032 c 0,-10.027 6.61,-16.011 17.67,-16.011 2.16,0 7.58,0.355 10.84,1.207 l 0.56,0.144 0,13.762 -0.88,-0.145 c -2.79,-0.457 -4.37,-0.578 -7.33,-0.578 -3.45,0 -4.92,1.512 -4.92,5.059 l 0,30.594 13.13,0 0,12.984 -13.13,0 0,18.34"
         style="fill:#35160f;fill-opacity:1;fill-rule:nonzero;stroke:none"
         id="path4618"
         inkscape:connector-curvature="0" /><path
         d="m 1838.3,457.465 0,0.074 c 0,8.602 6.34,11.668 12.28,11.668 5.29,0 10.95,-2.844 10.95,-10.844 l 0,-0.898 -23.23,0 z m 12.28,25.441 c -16.75,0 -28.45,-11.211 -28.45,-27.265 l 0,-11.828 c 0,-17.602 14.53,-25.485 28.92,-25.485 12.05,0 21.15,4.942 25.62,13.906 l 0.32,0.637 -12.33,7.086 -0.39,-0.574 c -3.15,-4.543 -8.05,-7.485 -12.51,-7.485 -6.49,0 -13.46,3.579 -13.46,11.438 l 0,2.562 39.18,0 0,12.465 c 0,16.86 -13.94,24.543 -26.9,24.543"
         style="fill:#35160f;fill-opacity:1;fill-rule:nonzero;stroke:none"
         id="path4620"
         inkscape:connector-curvature="0" /><path
         d="m 1921.55,468.852 0,12.984 -13.12,0 0,18.34 -15.95,0 0,-18.34 -8.15,0 0,-12.984 8.15,0 0,-34.032 c 0,-10.027 6.61,-16.011 17.67,-16.011 2.16,0 7.57,0.355 10.84,1.207 l 0.56,0.144 0,13.762 -0.88,-0.145 c -2.79,-0.457 -4.36,-0.578 -7.32,-0.578 -3.46,0 -4.92,1.512 -4.92,5.059 l 0,30.594 13.12,0"
         style="fill:#35160f;fill-opacity:1;fill-rule:nonzero;stroke:none"
         id="path4622"
         inkscape:connector-curvature="0" /><path
         d="m 800.398,431.414 c -3.789,0 -10.132,0.899 -10.132,6.941 0,4.512 3.074,6.704 9.422,6.704 l 13.449,0 0,-2.207 c 0,-6.868 -2.16,-11.438 -12.739,-11.438 z m 28.672,2.09 0,29.461 c 0,12.918 -9.461,20.039 -26.66,20.039 -11.972,0 -24.765,-4.863 -24.765,-18.504 l 0,-1.34 14.464,0 0.079,0.656 c 0.585,4.579 3.515,6.442 10.097,6.442 7.305,0 10.852,-2.735 10.852,-8.36 l 0,-4.808 -15.332,0 c -15.176,0 -23.117,-9.781 -23.117,-19.445 0,-11.594 8.566,-19.09 21.816,-19.09 7.273,0 12.09,0.965 17.363,6.043 0,-0.082 0.012,-0.168 0.02,-0.254 0.156,-1.895 0.293,-3.391 0.449,-4.035 l 0.137,-0.579 16.164,0 -0.598,1.11 c -0.527,0.984 -0.969,8.992 -0.969,12.664"
         style="fill:#35160f;fill-opacity:1;fill-rule:nonzero;stroke:none"
         id="path4624"
         inkscape:connector-curvature="0" /><path
         d="m 1740.93,431.414 c -3.79,0 -10.14,0.899 -10.14,6.941 0,4.446 3.17,6.704 9.42,6.704 l 13.45,0 0,-2.207 c 0,-6.868 -2.17,-11.438 -12.73,-11.438 z m 28.68,2.09 0,29.461 c 0,12.918 -9.48,20.039 -26.68,20.039 -11.97,0 -24.77,-4.863 -24.77,-18.504 l 0,-1.34 14.47,0 0.08,0.656 c 0.58,4.579 3.51,6.442 10.09,6.442 7.31,0 10.86,-2.735 10.86,-8.36 l 0,-4.808 -15.33,0 c -15.18,0 -23.12,-9.781 -23.12,-19.445 0,-11.594 8.56,-19.09 21.81,-19.09 7.28,0 12.09,0.961 17.36,6.035 0.16,-1.887 0.32,-3.606 0.49,-4.289 l 0.14,-0.571 16.16,0 -0.59,1.11 c -0.53,0.976 -0.97,8.988 -0.97,12.664"
         style="fill:#35160f;fill-opacity:1;fill-rule:nonzero;stroke:none"
         id="path4626"
         inkscape:connector-curvature="0" /><path
         d="m 718.965,349.047 23.191,0 0,8.344 -23.191,0 0,13.683 27.129,0 0,8.344 -36.281,0 0,-54.004 36.503,0 0,8.352 -27.351,0 0,15.281"
         style="fill:#35160f;fill-opacity:1;fill-rule:nonzero;stroke:none"
         id="path4628"
         inkscape:connector-curvature="0" /><path
         d="m 777.813,341.824 0,-1.918 c 0,-5.41 -2.852,-8.043 -8.704,-8.043 -1.582,0 -6.726,0.36 -6.726,4.985 0,2.136 0.742,4.976 7.168,4.976 l 8.262,0 z m 8.566,-6.801 0,17.868 c 0,7.839 -5.566,12.164 -15.664,12.164 -7.324,0 -15.149,-3.004 -15.149,-11.434 l 0,-2.019 7.981,0 0,2.238 c 0,2.973 3.633,4.031 7.019,4.031 6.497,0 7.247,-3.219 7.247,-5.637 l 0,-3.519 -9.29,0 c -7.046,0 -14.636,-3.828 -14.636,-12.235 0,-7.093 5.41,-11.867 13.476,-11.867 3.75,0 7.625,0.528 10.907,3.965 0.058,-0.922 0.136,-1.84 0.207,-2.308 l 0.128,-0.856 8.622,0 -0.293,1.231 c -0.254,1.066 -0.555,6.39 -0.555,8.378"
         style="fill:#35160f;fill-opacity:1;fill-rule:nonzero;stroke:none"
         id="path4630"
         inkscape:connector-curvature="0" /><path
         d="m 815.039,365.055 c -4.285,0 -8.066,-1.68 -10.742,-4.688 l 0,3.879 -8.352,0 0,-38.832 8.567,0 0,22.375 c 0,5.77 3.332,9.5 8.484,9.5 4.414,0 6.652,-2.73 6.652,-8.117 l 0,-23.758 8.575,0 0,25.875 c 0,8.492 -5.059,13.766 -13.184,13.766"
         style="fill:#35160f;fill-opacity:1;fill-rule:nonzero;stroke:none"
         id="path4632"
         inkscape:connector-curvature="0" /><path
         d="m 859.773,341.824 0,-1.918 c 0,-5.41 -2.839,-8.043 -8.699,-8.043 -1.57,0 -6.726,0.36 -6.726,4.985 0,2.136 0.742,4.976 7.168,4.976 l 8.257,0 z m 8.567,-6.801 0,17.868 c 0,7.839 -5.559,12.164 -15.652,12.164 -7.329,0 -15.161,-3.004 -15.161,-11.434 l 0,-2.019 7.993,0 0,2.238 c 0,2.973 3.621,4.031 7.019,4.031 6.484,0 7.234,-3.219 7.234,-5.637 l 0,-3.519 -9.277,0 c -7.051,0 -14.644,-3.828 -14.644,-12.235 0,-7.093 5.418,-11.867 13.472,-11.867 3.762,0 7.641,0.528 10.91,3.961 0.071,-0.922 0.137,-1.84 0.215,-2.308 l 0.125,-0.852 8.614,0 -0.293,1.231 c -0.243,1.066 -0.555,6.39 -0.555,8.378"
         style="fill:#35160f;fill-opacity:1;fill-rule:nonzero;stroke:none"
         id="path4634"
         inkscape:connector-curvature="0" /><path
         d="m 897.004,365.055 c -4.277,0 -8.066,-1.68 -10.742,-4.688 l 0,3.879 -8.34,0 0,-38.832 8.562,0 0,22.375 c 0,5.77 3.329,9.5 8.477,9.5 4.426,0 6.66,-2.73 6.66,-8.117 l 0,-23.758 8.567,0 0,25.875 c 0,8.492 -5.051,13.766 -13.184,13.766"
         style="fill:#35160f;fill-opacity:1;fill-rule:nonzero;stroke:none"
         id="path4636"
         inkscape:connector-curvature="0" /><path
         d="m 943.391,349.172 0,-8.164 c 0,-5.699 -4.258,-8.778 -8.262,-8.778 -4.809,0 -7.902,2.754 -7.902,7.024 l 0,10.797 c 0,5.5 4.128,7.453 7.675,7.453 5,0 8.489,-3.426 8.489,-8.332 z m 0,11.84 c -2.258,2.488 -5.746,4.043 -9.438,4.043 -7.117,0 -15.437,-4.047 -15.437,-15.446 l 0,-10.504 c 0,-8.753 5.937,-14.636 14.785,-14.636 3.242,0 7.39,1.59 10.234,4.668 l 0,-3.723 8.418,0 0,54.004 -8.562,0 0,-18.406"
         style="fill:#35160f;fill-opacity:1;fill-rule:nonzero;stroke:none"
         id="path4638"
         inkscape:connector-curvature="0" /><path
         d="m 977.488,332.086 c -5.175,0 -8.258,2.926 -8.258,7.82 l 0,9.485 c 0,5.066 2.926,7.972 8.043,7.972 5.176,0 8.262,-2.871 8.262,-7.679 l 0,-9.555 c 0,-5.188 -2.859,-8.043 -8.047,-8.043 z m -0.215,32.894 c -8.074,0 -16.753,-5.015 -16.753,-16.027 l 0,-9.117 c 0,-9.34 6.66,-15.367 16.968,-15.367 8.071,0 16.758,5.039 16.758,16.097 l 0,8.536 c 0,9.496 -6.824,15.878 -16.973,15.878"
         style="fill:#35160f;fill-opacity:1;fill-rule:nonzero;stroke:none"
         id="path4640"
         inkscape:connector-curvature="0" /><path
         d="m 1025.07,341.824 0,-1.918 c 0,-5.41 -2.85,-8.043 -8.7,-8.043 -1.58,0 -6.73,0.36 -6.73,4.985 0,2.136 0.74,4.976 7.16,4.976 l 8.27,0 z m 8.55,-6.801 0,17.868 c 0,7.839 -5.55,12.164 -15.65,12.164 -7.33,0 -15.15,-3.004 -15.15,-11.434 l 0,-2.019 7.97,0 0,2.238 c 0,2.973 3.63,4.031 7.03,4.031 6.49,0 7.25,-3.219 7.25,-5.637 l 0,-3.519 -9.29,0 c -7.05,0 -14.64,-3.828 -14.64,-12.235 0,-7.093 5.41,-11.867 13.47,-11.867 3.76,0 7.64,0.528 10.91,3.961 0.07,-0.922 0.13,-1.84 0.21,-2.308 l 0.13,-0.852 8.62,0 -0.29,1.231 c -0.25,1.066 -0.57,6.39 -0.57,8.378"
         style="fill:#35160f;fill-opacity:1;fill-rule:nonzero;stroke:none"
         id="path4642"
         inkscape:connector-curvature="0" /><path
         d="m 1054.92,332.598 c -2.2,0 -3.31,1.011 -3.31,3.007 l 0,43.813 -8.55,0 0,-43.664 c 0,-8.906 5.22,-10.777 9.61,-10.777 2.38,0 4.82,0.289 6.54,0.769 l 0.72,0.207 0,7.043 -1.6,-0.168 c -1.13,-0.129 -2.12,-0.23 -3.41,-0.23"
         style="fill:#35160f;fill-opacity:1;fill-rule:nonzero;stroke:none"
         id="path4644"
         inkscape:connector-curvature="0" /><path
         d="m 1078.83,332.598 c -2.2,0 -3.31,1.011 -3.31,3.007 l 0,43.813 -8.56,0 0,-43.664 c 0,-8.906 5.23,-10.777 9.61,-10.777 2.39,0 4.83,0.289 6.55,0.769 l 0.72,0.207 0,7.043 -1.6,-0.168 c -1.14,-0.129 -2.12,-0.23 -3.41,-0.23"
         style="fill:#35160f;fill-opacity:1;fill-rule:nonzero;stroke:none"
         id="path4646"
         inkscape:connector-curvature="0" /><path
         d="m 1106.29,332.086 c -5.18,0 -8.27,2.926 -8.27,7.82 l 0,9.485 c 0,5.066 2.93,7.972 8.04,7.972 5.18,0 8.27,-2.871 8.27,-7.679 l 0,-9.555 c 0,-5.188 -2.86,-8.043 -8.04,-8.043 z m -0.23,32.894 c -8.06,0 -16.75,-5.015 -16.75,-16.027 l 0,-9.117 c 0,-9.34 6.67,-15.367 16.98,-15.367 8.07,0 16.75,5.039 16.75,16.097 l 0,8.536 c 0,9.496 -6.82,15.878 -16.98,15.878"
         style="fill:#35160f;fill-opacity:1;fill-rule:nonzero;stroke:none"
         id="path4648"
         inkscape:connector-curvature="0" /><path
         d="m 1155.19,349.172 0,-8.164 c 0,-5.699 -4.26,-8.778 -8.28,-8.778 -4.79,0 -7.9,2.754 -7.9,7.024 l 0,10.797 c 0,5.5 4.14,7.453 7.69,7.453 4.99,0 8.49,-3.426 8.49,-8.332 z m 0,11.84 c -2.26,2.488 -5.75,4.043 -9.44,4.043 -7.13,0 -15.45,-4.047 -15.45,-15.446 l 0,-10.504 c 0,-8.753 5.95,-14.636 14.8,-14.636 3.24,0 7.39,1.594 10.22,4.668 l 0,-3.723 8.42,0 0,54.004 -8.55,0 0,-18.406"
         style="fill:#35160f;fill-opacity:1;fill-rule:nonzero;stroke:none"
         id="path4650"
         inkscape:connector-curvature="0" /><path
         d="m 1173.64,368.887 8.5586,0 0,10.5313 -8.5586,0 0,-10.5313 z"
         style="fill:#35160f;fill-opacity:1;fill-rule:nonzero;stroke:none"
         id="path4652"
         inkscape:connector-curvature="0" /><path
         d="m 1173.64,325.414 8.5586,0 0,38.832 -8.5586,0 0,-38.832 z"
         style="fill:#35160f;fill-opacity:1;fill-rule:nonzero;stroke:none"
         id="path4654"
         inkscape:connector-curvature="0" /><path
         d="m 1212.42,364.906 c -3.7,0 -8.7,-1.492 -12.06,-5.511 l 0,4.851 -8.34,0 0,-38.832 8.56,0 0,20.695 c 0,6.481 4.42,10.668 11.26,10.668 1.08,0 2.1,0 3.17,-0.199 l 1.19,-0.226 0,8.168 -0.82,0.148 c -0.82,0.152 -1.9,0.238 -2.96,0.238"
         style="fill:#35160f;fill-opacity:1;fill-rule:nonzero;stroke:none"
         id="path4656"
         inkscape:connector-curvature="0" /><path
         d="m 1238.04,357.438 c 4.72,0 7.67,-3 7.67,-7.829 l 0,-0.746 -15.8,0 0,0.239 c 0,4.984 3.26,8.336 8.13,8.336 z m 0.21,7.542 c -10.28,0 -17.19,-6.792 -17.19,-16.906 l 0,-7.582 c 0,-9.734 6.8,-16.023 17.34,-16.023 6.79,0 12.18,2.793 15.15,7.855 l 0.51,0.86 -6.65,3.961 -0.54,-0.719 c -1.22,-1.621 -3.89,-4.34 -8.11,-4.34 -5.37,0 -8.85,3.125 -8.85,7.969 l 0,2.211 24.38,0 0,7.269 c 0,10.668 -8.06,15.445 -16.04,15.445"
         style="fill:#35160f;fill-opacity:1;fill-rule:nonzero;stroke:none"
         id="path4658"
         inkscape:connector-curvature="0" /><path
         d="m 1295.91,364.246 -10.7,0 -14.11,-15.547 0,30.719 -8.55,0 0,-54.004 8.55,0 0,12.785 4.87,5.09 10.49,-17.875 9.78,0 -14.32,23.984 13.99,14.848"
         style="fill:#35160f;fill-opacity:1;fill-rule:nonzero;stroke:none"
         id="path4660"
         inkscape:connector-curvature="0" /><path
         d="m 1318.03,332.738 c -2.65,0 -3.59,0.883 -3.59,3.379 l 0,20.809 9.48,0 0,7.32 -9.48,0 0,11.383 -8.57,0 0,-11.383 -5.92,0 0,-7.32 5.92,0 0,-22.488 c 0,-6.059 3.94,-9.676 10.56,-9.676 1.36,0 4.59,0.187 7,0.918 l 0.7,0.215 0,7.66 -1.2,-0.254 c -1.67,-0.348 -3.07,-0.563 -4.9,-0.563"
         style="fill:#35160f;fill-opacity:1;fill-rule:nonzero;stroke:none"
         id="path4662"
         inkscape:connector-curvature="0" /><path
         d="m 1346.65,332.086 c -5.18,0 -8.26,2.926 -8.26,7.82 l 0,9.485 c 0,5.066 2.93,7.972 8.04,7.972 5.17,0 8.27,-2.871 8.27,-7.679 l 0,-9.555 c 0,-5.188 -2.86,-8.043 -8.05,-8.043 z m -0.22,32.894 c -8.07,0 -16.75,-5.015 -16.75,-16.027 l 0,-9.117 c 0,-9.34 6.66,-15.367 16.97,-15.367 8.07,0 16.76,5.039 16.76,16.097 l 0,8.536 c 0,9.496 -6.83,15.878 -16.98,15.878"
         style="fill:#35160f;fill-opacity:1;fill-rule:nonzero;stroke:none"
         id="path4664"
         inkscape:connector-curvature="0" /><path
         d="m 1392.37,364.906 c -3.7,0 -8.69,-1.492 -12.05,-5.511 l 0,4.851 -8.36,0 0,-38.832 8.58,0 0,20.695 c 0,6.481 4.41,10.668 11.25,10.668 1.07,0 2.09,0 3.17,-0.199 l 1.18,-0.226 0,8.168 -0.82,0.148 c -0.82,0.152 -1.89,0.238 -2.95,0.238"
         style="fill:#35160f;fill-opacity:1;fill-rule:nonzero;stroke:none"
         id="path4666"
         inkscape:connector-curvature="0" /><path
         d="m 1424.74,341.824 0,-1.918 c 0,-5.41 -2.86,-8.043 -8.7,-8.043 -1.59,0 -6.73,0.36 -6.73,4.985 0,2.136 0.74,4.976 7.15,4.976 l 8.28,0 z m 8.55,-6.801 0,17.868 c 0,7.839 -5.56,12.164 -15.65,12.164 -7.33,0 -15.15,-3.004 -15.15,-11.434 l 0,-2.019 7.97,0 0,2.238 c 0,2.973 3.63,4.031 7.03,4.031 6.48,0 7.25,-3.219 7.25,-5.637 l 0,-3.519 -9.29,0 c -7.05,0 -14.64,-3.828 -14.64,-12.235 0,-7.093 5.41,-11.867 13.47,-11.867 3.76,0 7.63,0.528 10.91,3.961 0.06,-0.922 0.13,-1.84 0.21,-2.308 l 0.13,-0.852 8.62,0 -0.29,1.231 c -0.26,1.066 -0.57,6.39 -0.57,8.378"
         style="fill:#35160f;fill-opacity:1;fill-rule:nonzero;stroke:none"
         id="path4668"
         inkscape:connector-curvature="0" /><path
         d="m 1430.71,380.004 -10.29,0 -7.89,-13.449 7.56,0 10.62,13.449"
         style="fill:#35160f;fill-opacity:1;fill-rule:nonzero;stroke:none"
         id="path4670"
         inkscape:connector-curvature="0" /><path
         d="m 1461.95,365.055 c -4.14,0 -7.92,-1.735 -10.53,-4.746 l 0,19.109 -8.56,0 0,-54.004 8.56,0 0,22.375 c 0,5.77 3.34,9.5 8.48,9.5 4.43,0 6.67,-2.73 6.67,-8.117 l 0,-23.758 8.56,0 0,25.875 c 0,8.492 -5.04,13.766 -13.18,13.766"
         style="fill:#35160f;fill-opacity:1;fill-rule:nonzero;stroke:none"
         id="path4672"
         inkscape:connector-curvature="0" /><path
         d="m 1499.5,332.738 c -2.65,0 -3.59,0.883 -3.59,3.379 l 0,20.809 9.49,0 0,7.32 -9.49,0 0,11.383 -8.58,0 0,-11.383 -5.89,0 0,-7.32 5.89,0 0,-22.488 c 0,-6.059 3.96,-9.676 10.57,-9.676 1.37,0 4.59,0.187 6.99,0.918 l 0.73,0.215 0,7.66 -1.22,-0.254 c -1.66,-0.348 -3.06,-0.563 -4.9,-0.563"
         style="fill:#35160f;fill-opacity:1;fill-rule:nonzero;stroke:none"
         id="path4674"
         inkscape:connector-curvature="0" /><path
         d="m 1528.54,332.738 c -2.65,0 -3.59,0.883 -3.59,3.379 l 0,20.809 9.47,0 0,7.32 -9.47,0 0,11.383 -8.57,0 0,-11.383 -5.92,0 0,-7.32 5.92,0 0,-22.488 c 0,-6.059 3.94,-9.676 10.55,-9.676 1.37,0 4.59,0.187 7.01,0.918 l 0.7,0.215 0,7.66 -1.2,-0.254 c -1.67,-0.348 -3.07,-0.563 -4.9,-0.563"
         style="fill:#35160f;fill-opacity:1;fill-rule:nonzero;stroke:none"
         id="path4676"
         inkscape:connector-curvature="0" /><path
         d="m 1564.29,341.824 0,-1.918 c 0,-5.41 -2.83,-8.043 -8.69,-8.043 -1.59,0 -6.74,0.36 -6.74,4.985 0,2.136 0.74,4.976 7.17,4.976 l 8.26,0 z m 9.12,-15.179 c -0.25,1.066 -0.55,6.39 -0.55,8.378 l 0,17.868 c 0,7.839 -5.57,12.164 -15.66,12.164 -7.33,0 -15.16,-3.004 -15.16,-11.434 l 0,-2.019 7.99,0 0,2.238 c 0,2.973 3.62,4.031 7.02,4.031 6.49,0 7.24,-3.219 7.24,-5.637 l 0,-3.519 -9.28,0 c -7.05,0 -14.65,-3.828 -14.65,-12.235 0,-7.093 5.42,-11.867 13.48,-11.867 3.76,0 7.63,0.528 10.92,3.961 0.05,-0.922 0.13,-1.84 0.2,-2.308 l 0.13,-0.852 8.61,0 -0.29,1.231"
         style="fill:#35160f;fill-opacity:1;fill-rule:nonzero;stroke:none"
         id="path4678"
         inkscape:connector-curvature="0" /><path
         d="m 230.012,0 268.316,504.633 -15.855,0 L 214.172,0 l 15.84,0"
         style="fill:#35160f;fill-opacity:1;fill-rule:nonzero;stroke:none"
         id="path4680"
         inkscape:connector-curvature="0" /><path
         d="m 187.156,0 268.305,504.633 -15.844,0 L 171.301,0 187.156,0"
         style="fill:#35160f;fill-opacity:1;fill-rule:nonzero;stroke:none"
         id="path4682"
         inkscape:connector-curvature="0" /><path
         d="m 144.285,0 268.32,504.633 -15.859,0 L 128.43,0 144.285,0"
         style="fill:#35160f;fill-opacity:1;fill-rule:nonzero;stroke:none"
         id="path4684"
         inkscape:connector-curvature="0" /><path
         d="m 101.414,0 268.32,504.633 -15.855,0 L 85.5781,0 101.414,0"
         style="fill:#35160f;fill-opacity:1;fill-rule:nonzero;stroke:none"
         id="path4686"
         inkscape:connector-curvature="0" /><path
         d="m 58.5547,0 268.3083,504.633 -15.84,0 L 42.7148,0 58.5547,0"
         style="fill:#35160f;fill-opacity:1;fill-rule:nonzero;stroke:none"
         id="path4688"
         inkscape:connector-curvature="0" /><path
         d="m 712.605,142.207 -15.859,0 L 772.355,0 l 15.86,0 -75.61,142.207"
         style="fill:#24b8e2;fill-opacity:1;fill-rule:nonzero;stroke:none"
         id="path4690"
         inkscape:connector-curvature="0" /><path
         d="m 669.734,142.207 -15.839,0 L 729.504,0 l 15.84,0 -75.61,142.207"
         style="fill:#24b8e2;fill-opacity:1;fill-rule:nonzero;stroke:none"
         id="path4692"
         inkscape:connector-curvature="0" /><path
         d="M 611.023,142.207 686.633,0 l 15.855,0 -75.601,142.207 -15.864,0"
         style="fill:#24b8e2;fill-opacity:1;fill-rule:nonzero;stroke:none"
         id="path4694"
         inkscape:connector-curvature="0" /><path
         d="M 568.152,142.207 643.762,0 l 15.855,0 -75.601,142.207 -15.864,0"
         style="fill:#24b8e2;fill-opacity:1;fill-rule:nonzero;stroke:none"
         id="path4696"
         inkscape:connector-curvature="0" /><path
         d="M 525.305,142.207 600.906,0 l 15.864,0 -75.61,142.207 -15.855,0"
         style="fill:#24b8e2;fill-opacity:1;fill-rule:nonzero;stroke:none"
         id="path4698"
         inkscape:connector-curvature="0" /><path
         d="M 15.7422,0.0195313 283.699,504.441 C 272.805,501.98 262.996,494.98 257.355,484.332 L 0,0.0195313 l 15.7422,0"
         style="fill:#35160f;fill-opacity:1;fill-rule:nonzero;stroke:none"
         id="path4700"
         inkscape:connector-curvature="0" /><path
         d="m 498.23,142.246 -15.679,0 64.722,-121.7968 C 552.922,9.80469 562.727,2.79297 573.621,0.332031 L 498.23,142.246"
         style="fill:#24b8e2;fill-opacity:1;fill-rule:nonzero;stroke:none"
         id="path4702"
         inkscape:connector-curvature="0" /><path
         d="M 928.227,252.949 802.102,15.7305 810.027,0.820313 944.086,252.949 l -15.859,0"
         style="fill:#24b8e2;fill-opacity:1;fill-rule:nonzero;stroke:none"
         id="path4704"
         inkscape:connector-curvature="0" /><path
         d="M 885.359,252.949 780.676,56.0352 l 7.929,-14.9024 112.618,211.8162 -15.864,0"
         style="fill:#24b8e2;fill-opacity:1;fill-rule:nonzero;stroke:none"
         id="path4706"
         inkscape:connector-curvature="0" /><path
         d="m 842.5,252.949 -83.27,-156.6013 7.926,-14.9024 91.203,171.5037 -15.859,0"
         style="fill:#24b8e2;fill-opacity:1;fill-rule:nonzero;stroke:none"
         id="path4708"
         inkscape:connector-curvature="0" /><path
         d="m 799.629,252.949 -61.832,-116.289 7.93,-14.902 69.761,131.191 -15.859,0"
         style="fill:#24b8e2;fill-opacity:1;fill-rule:nonzero;stroke:none"
         id="path4710"
         inkscape:connector-curvature="0" /><path
         d="m 756.777,252.949 -40.406,-75.984 7.93,-14.914 48.336,90.898 -15.86,0"
         style="fill:#24b8e2;fill-opacity:1;fill-rule:nonzero;stroke:none"
         id="path4712"
         inkscape:connector-curvature="0" /><path
         d="m 713.918,252.949 -18.973,-35.683 7.91,-14.907 26.903,50.59 -15.84,0"
         style="fill:#24b8e2;fill-opacity:1;fill-rule:nonzero;stroke:none"
         id="path4714"
         inkscape:connector-curvature="0" /><path
         d="m 530.371,162.488 -95.754,180.078 -7.929,-14.91 87.824,-165.168 15.859,0"
         style="fill:#35160f;fill-opacity:1;fill-rule:nonzero;stroke:none"
         id="path4716"
         inkscape:connector-curvature="0" /><path
         d="m 573.223,162.488 -117.176,220.383 -7.934,-14.906 109.25,-205.477 15.86,0"
         style="fill:#35160f;fill-opacity:1;fill-rule:nonzero;stroke:none"
         id="path4718"
         inkscape:connector-curvature="0" /><path
         d="m 616.094,162.488 -138.621,260.696 -7.93,-14.914 130.691,-245.782 15.86,0"
         style="fill:#35160f;fill-opacity:1;fill-rule:nonzero;stroke:none"
         id="path4720"
         inkscape:connector-curvature="0" /><path
         d="m 701.816,162.488 -181.472,341.309 -7.934,-14.906 173.547,-326.403 15.859,0"
         style="fill:#35160f;fill-opacity:1;fill-rule:nonzero;stroke:none"
         id="path4722"
         inkscape:connector-curvature="0" /><path
         d="m 658.945,162.488 -160.027,300.996 -7.934,-14.902 152.102,-286.094 15.859,0"
         style="fill:#35160f;fill-opacity:1;fill-rule:nonzero;stroke:none"
         id="path4724"
         inkscape:connector-curvature="0" /><path
         d="m 487.48,162.488 -74.304,139.774 -7.91,-14.91 66.375,-124.864 15.839,0"
         style="fill:#35160f;fill-opacity:1;fill-rule:nonzero;stroke:none"
         id="path4726"
         inkscape:connector-curvature="0" /><path
         d="M 695.191,145.383 772.48,0.0117188 l 15.86,0 -77.293,145.3712812 -15.856,0"
         style="fill:#24b8e2;fill-opacity:1;fill-rule:nonzero;stroke:none"
         id="path4728"
         inkscape:connector-curvature="0" /><path
         d="m 652.336,145.383 77.293,-145.3712812 15.84,0 L 668.18,145.383 l -15.844,0"
         style="fill:#24b8e2;fill-opacity:1;fill-rule:nonzero;stroke:none"
         id="path4730"
         inkscape:connector-curvature="0" /><path
         d="m 609.465,145.383 77.293,-145.3712812 15.859,0 L 625.32,145.383 l -15.855,0"
         style="fill:#24b8e2;fill-opacity:1;fill-rule:nonzero;stroke:none"
         id="path4732"
         inkscape:connector-curvature="0" /><path
         d="m 566.598,145.383 77.289,-145.3712812 15.859,0 -77.297,145.3712812 -15.851,0"
         style="fill:#24b8e2;fill-opacity:1;fill-rule:nonzero;stroke:none"
         id="path4734"
         inkscape:connector-curvature="0" /><path
         d="m 523.746,145.383 77.289,-145.3712812 15.84,0 -77.289,145.3712812 -15.84,0"
         style="fill:#24b8e2;fill-opacity:1;fill-rule:nonzero;stroke:none"
         id="path4736"
         inkscape:connector-curvature="0" /><path
         d="M 480.906,145.383 547.363,20.3125 C 553.008,9.66797 562.813,2.66797 573.711,0.203125 L 496.594,145.383 l -15.688,0"
         style="fill:#24b8e2;fill-opacity:1;fill-rule:nonzero;stroke:none"
         id="path4738"
         inkscape:connector-curvature="0" /></g></g></svg>
